/vscmnt/brussel_pixiu_data/_data_brussel/112/vsc11236/PredSimResults/SUBJ04_Dhondt2024_3seg/weighted-LRposFixed/worker_04.mot
version=1
nRows=4
nColumns=124
inDegrees=yes
endheader
                time	         pelvis_tilt	         pelvis_list	     pelvis_rotation	           pelvis_tx	           pelvis_ty	           pelvis_tz	       hip_flexion_r	     hip_adduction_r	      hip_rotation_r	        knee_angle_r	       ankle_angle_r	    subtalar_angle_r	         mtp_angle_r	       hip_flexion_l	     hip_adduction_l	      hip_rotation_l	        knee_angle_l	       ankle_angle_l	    subtalar_angle_l	         mtp_angle_l	    lumbar_extension	      lumbar_bending	     lumbar_rotation	          arm_flex_r	           arm_add_r	           arm_rot_r	        elbow_flex_r	          arm_flex_l	           arm_add_l	           arm_rot_l	        elbow_flex_l	glut_med1_r/activation	glut_med2_r/activation	glut_med3_r/activation	glut_min1_r/activation	glut_min2_r/activation	glut_min3_r/activation	semimem_r/activation	semiten_r/activation	bifemlh_r/activation	bifemsh_r/activation	    sar_r/activation	add_long_r/activation	add_brev_r/activation	add_mag1_r/activation	add_mag2_r/activation	add_mag3_r/activation	    tfl_r/activation	   pect_r/activation	   grac_r/activation	glut_max1_r/activation	glut_max2_r/activation	glut_max3_r/activation	iliacus_r/activation	  psoas_r/activation	quad_fem_r/activation	    gem_r/activation	   peri_r/activation	rect_fem_r/activation	vas_med_r/activation	vas_int_r/activation	vas_lat_r/activation	med_gas_r/activation	lat_gas_r/activation	 soleus_r/activation	tib_post_r/activation	flex_dig_r/activation	flex_hal_r/activation	tib_ant_r/activation	per_brev_r/activation	per_long_r/activation	per_tert_r/activation	ext_dig_r/activation	ext_hal_r/activation	glut_med1_l/activation	glut_med2_l/activation	glut_med3_l/activation	glut_min1_l/activation	glut_min2_l/activation	glut_min3_l/activation	semimem_l/activation	semiten_l/activation	bifemlh_l/activation	bifemsh_l/activation	    sar_l/activation	add_long_l/activation	add_brev_l/activation	add_mag1_l/activation	add_mag2_l/activation	add_mag3_l/activation	    tfl_l/activation	   pect_l/activation	   grac_l/activation	glut_max1_l/activation	glut_max2_l/activation	glut_max3_l/activation	iliacus_l/activation	  psoas_l/activation	quad_fem_l/activation	    gem_l/activation	   peri_l/activation	rect_fem_l/activation	vas_med_l/activation	vas_int_l/activation	vas_lat_l/activation	med_gas_l/activation	lat_gas_l/activation	 soleus_l/activation	tib_post_l/activation	flex_dig_l/activation	flex_hal_l/activation	tib_ant_l/activation	per_brev_l/activation	per_long_l/activation	per_tert_l/activation	ext_dig_l/activation	ext_hal_l/activation	 ercspn_r/activation	 ercspn_l/activation	 intobl_r/activation	 intobl_l/activation	 extobl_r/activation	 extobl_l/activation	
          1.95399338	         -2.92878594	         -0.30523900	         -1.72956681	          1.75859404	          0.87073954	          0.00170587	        -14.21127355	          4.16070064	         14.20172343	         -5.84228739	          9.56550584	         -0.30475977	         12.72679367	         28.79193445	          3.11447397	          6.78797636	        -11.81303125	          4.05550530	         -4.83673849	          0.20234314	         -4.15868044	          1.74142663	          1.16684548	          2.88175370	        -13.49742574	         19.37444327	         39.34596831	         -2.94552014	        -13.45314901	         15.66717012	         22.84548823	          0.39354233	          0.19035851	          0.09785888	          0.37587665	          0.37077756	          0.23421319	          0.01016468	          0.01000072	          0.01000092	          0.05567215	          0.13025415	          0.01000003	          0.01000005	          0.01000019	          0.01000076	          0.01000040	          0.37424523	          0.01000020	          0.01000028	          0.03323065	          0.02419718	          0.01000151	          0.24118702	          0.37906879	          0.01073502	          0.02194558	          0.10058934	          0.14908753	          0.01000016	          0.01000019	          0.01000016	          0.42635989	          0.46403068	          0.38464757	          0.22098243	          0.26130707	          0.31868433	          0.01262953	          0.07592622	          0.17706671	          0.01481343	          0.01481374	          0.01328979	          0.01481367	          0.01000184	          0.01000016	          0.01481363	          0.01481179	          0.01000057	          0.06658864	          0.03457024	          0.01217145	          0.01000015	          0.01301910	          0.13491458	          0.17009229	          0.12573049	          0.13588532	          0.08253129	          0.01000028	          0.02741052	          0.05883873	          0.01000417	          0.01217176	          0.04416291	          0.02550055	          0.02257601	          0.01690361	          0.01000048	          0.01000012	          0.01000005	          0.06088799	          0.06326507	          0.05187801	          0.01000006	          0.01000011	          0.01000016	          0.01000046	          0.01000059	          0.01000104	          0.23045163	          0.17218630	          0.11314539	          0.14340441	          0.33456401	          0.03509001	          0.01000000	          0.01489180	          0.01000000	          0.05039533	          0.01000002	          0.08316272	
          1.96702000	         -2.93019945	         -0.08531110	         -1.87300194	          1.77283922	          0.87015634	          0.00149940	        -14.48426373	          3.97034445	         13.86521916	         -7.07365561	          9.21989385	          0.09383638	         13.82111834	         28.09394452	          3.55314870	          6.97045342	        -11.26198448	          3.15268595	         -5.23296208	          0.21553982	         -4.02189741	          1.30665229	          1.24175296	          2.41286938	        -13.51774144	         19.37303962	         41.60437469	         -3.69299639	        -13.45914325	         15.19094886	         21.58696832	          0.41591750	          0.15640203	          0.08040264	          0.31810579	          0.30463778	          0.19243385	          0.01000092	          0.01000021	          0.01000016	          0.04574126	          0.10701968	          0.01000021	          0.01000017	          0.01000049	          0.01000153	          0.01000044	          0.31235293	          0.01000134	          0.01000302	          0.02730303	          0.01988099	          0.01000121	          0.23398888	          0.31145026	          0.01481351	          0.01803116	          0.08264604	          0.16293622	          0.01000028	          0.01000034	          0.01000028	          0.39486306	          0.43154437	          0.37010050	          0.21673252	          0.26237660	          0.31754064	          0.01037665	          0.06238239	          0.16006349	          0.01217100	          0.01217124	          0.01091915	          0.01217119	          0.01000145	          0.01000016	          0.01217121	          0.01217098	          0.01000077	          0.05471047	          0.02840357	          0.01000031	          0.01000004	          0.01069678	          0.11085018	          0.17553029	          0.16324019	          0.13455325	          0.06780944	          0.01000024	          0.03497071	          0.04834310	          0.01000049	          0.01000073	          0.06241619	          0.02095175	          0.01854888	          0.09999243	          0.01000047	          0.01000035	          0.01481363	          0.06894940	          0.06393808	          0.05806437	          0.01000000	          0.01000001	          0.01000000	          0.01000001	          0.01000011	          0.01000009	          0.24190871	          0.15577847	          0.10391365	          0.17920024	          0.35893082	          0.04752753	          0.01000002	          0.01223538	          0.01428271	          0.04140572	          0.01000004	          0.06832801	
          1.98004662	         -2.92714415	          0.14701837	         -2.01010331	          1.78746898	          0.86967147	          0.00129258	        -14.69707991	          3.76671833	         13.50903021	         -8.43441544	          8.71994783	          0.53075033	         14.99838423	         27.36591065	          3.97948157	          7.18721202	        -11.34255502	          1.96724858	         -5.61728008	          0.22364669	         -3.86214958	          0.85220554	          1.31019001	          1.85858026	        -13.53736769	         19.35796085	         43.86332325	         -4.46809240	        -13.47381148	         14.86964945	         20.32495464	          0.37130715	          0.12850276	          0.06606028	          0.26153195	          0.25029600	          0.15810717	          0.01000251	          0.01000028	          0.01000020	          0.03758186	          0.08792941	          0.01000022	          0.01000018	          0.01000050	          0.01000154	          0.01000057	          0.25663500	          0.01000139	          0.01000078	          0.02243274	          0.01633468	          0.01000065	          0.21919668	          0.27027060	          0.01217110	          0.01481485	          0.06790350	          0.18404641	          0.01000015	          0.01000019	          0.01000017	          0.35960789	          0.39290481	          0.34943859	          0.20618151	          0.25403582	          0.30638116	          0.01000000	          0.05125453	          0.16865858	          0.01000005	          0.01000012	          0.01000006	          0.01000008	          0.01000001	          0.01000005	          0.01000012	          0.01000005	          0.01000007	          0.04495119	          0.05475088	          0.02500314	          0.02670818	          0.01481228	          0.09107673	          0.14458734	          0.13412144	          0.11055154	          0.05571350	          0.01000018	          0.02873529	          0.09432636	          0.01000004	          0.01000004	          0.05128230	          0.01802953	          0.01802964	          0.14952918	          0.01945367	          0.01000025	          0.01217117	          0.05665009	          0.05253271	          0.04770676	          0.01481363	          0.01481439	          0.01481344	          0.01217195	          0.01217145	          0.01258921	          0.19875665	          0.12799102	          0.11117115	          0.14723420	          0.39832599	          0.03904953	          0.01008127	          0.01005281	          0.01217112	          0.03401970	          0.01429939	          0.05613953	
          1.99307325	         -2.92106758	          0.39946869	         -2.13581916	          1.80236863	          0.86932815	          0.00109940	        -14.82731420	          3.54535032	         13.12664202	         -9.93999425	          8.04496645	          1.00059302	         16.24439507	         26.59828569	          4.37231103	          7.44196365	        -11.58482102	          0.62247799	         -5.99944236	          0.22167069	         -3.68775478	          0.36897852	          1.36950515	          1.23630460	        -13.54994136	         19.32859980	         46.10805722	         -5.24218928	        -13.49863121	         14.73399530	         19.04132663	          0.39065939	          0.10558021	          0.05427633	          0.38670511	          0.20564780	          0.12990373	          0.01000105	          0.01000011	          0.01000011	          0.03087795	          0.07224446	          0.01000003	          0.01000004	          0.01000014	          0.01000057	          0.01000029	          0.21085607	          0.01000017	          0.01000018	          0.01843121	          0.01342099	          0.01000050	          0.19780270	          0.27334107	          0.01000015	          0.01217226	          0.05579075	          0.16445781	          0.01171453	          0.01001326	          0.01000319	          0.31706707	          0.35174513	          0.32364677	          0.18808246	          0.23264138	          0.28701801	          0.01000001	          0.04211185	          0.18072226	          0.01000006	          0.01000001	          0.01000009	          0.19034411	          0.19374925	          0.17968244	          0.06375011	          0.01000075	          0.01000039	          0.03693275	          0.04500637	          0.03406124	          0.02194394	          0.01217013	          0.07483031	          0.11879562	          0.11019669	          0.09083129	          0.06113908	          0.01000021	          0.02360959	          0.07750030	          0.14198841	          0.01780538	          0.04906160	          0.01481340	          0.01481349	          0.12285592	          0.01598359	          0.01000039	          0.01000009	          0.04654574	          0.04316210	          0.03919737	          0.01217115	          0.01217178	          0.01217099	          0.01000070	          0.01000031	          0.01034355	          0.31759714	          0.20044110	          0.10782184	          0.39393330	          0.46078300	          0.18235582	          0.01911537	          0.01746224	          0.01000001	          0.02795121	          0.01174865	          0.04612526	
